# xmcd CD database file
# Copyright (C) 1993-1998 Ti Kan
#
# Track frame offsets:
#  182
#  127132
#  127785
#  128452
#  129227
#  129832
#  130397
#  131015
#  131667
#  136412
#  138822
#  141000
#  143635
#  151272
#  154982
#  159535
#  169627
#  172805
#  176165
#  180532
#  182857
#  185567
#  191345
#  194205
#  199455
#  201717
#  205782
#  208997
#  215627
#  222887
#  226925
#  235472
#  240787
#  244040
#  247490
#  249820
#  254517
#  258487
#  261797
#  268202
#  271562
#  273952
#  277270
#
# Disc length: 3795 seconds
#
# Revision: 1
# Processed by: cddbd v1.4b41PL1 Copyright (c) Steve Scherf et al.
# Submitted via: CDWizzard Release:4.35
#
DISCID=a30ed12b
DTITLE=Led Zeppelin - REMASTERS - Boxed Set [CD3]
DYEAR=1900
DGENRE=
TTITLE0=Led Zeppelin Profile
TTITLE1=Station Liners
TTITLE2=Station Liners
TTITLE3=Station Liners
TTITLE4=Station Liners
TTITLE5=Station Liners
TTITLE6=Station Liners
TTITLE7=Station Liners
TTITLE8=Answers Only (Jimmy Page)
TTITLE9=Answers Only (Jimmy Page)
TTITLE10=Answers Only (Jimmy Page)
TTITLE11=Answers Only (Jimmy Page)
TTITLE12=Answers Only (Jimmy Page)
TTITLE13=Answers Only (Jimmy Page)
TTITLE14=Answers Only (Jimmy Page)
TTITLE15=Answers Only (Jimmy Page)
TTITLE16=Answers Only (Jimmy Page)
TTITLE17=Answers Only (Jimmy Page)
TTITLE18=Answers Only (Jimmy Page)
TTITLE19=Answers Only (Jimmy Page)
TTITLE20=Answers Only (Robert Plant)
TTITLE21=Answers Only (Robert Plant)
TTITLE22=Answers Only (Robert Plant)
TTITLE23=Answers Only (Robert Plant)
TTITLE24=Answers Only (Robert Plant)
TTITLE25=Answers Only (Robert Plant)
TTITLE26=Answers Only (Robert Plant)
TTITLE27=Answers Only (Robert Plant)
TTITLE28=Answers Only (Robert Plant)
TTITLE29=Answers Only (Robert Plant)
TTITLE30=Answers Only (Robert Plant)
TTITLE31=Answers Only (Robert Plant)
TTITLE32=Answers Only (John Paul Jones)
TTITLE33=Answers Only (J.P. Jones)
TTITLE34=Answers Only (J.P. Jones)
TTITLE35=Answers Only (J.P. Jones)
TTITLE36=Answers Only (J.P. Jones)
TTITLE37=Answers Only (J.P. Jones)
TTITLE38=Answers Only (J.P. Jones)
TTITLE39=Answers Only (J.P. Jones)
TTITLE40=Answers Only (J.P. Jones)
TTITLE41=Answers Only (J.P. Jones)
TTITLE42=Answers Only (John Paul Jones)
EXTD=
EXTT0=
EXTT1=
EXTT2=
EXTT3=
EXTT4=
EXTT5=
EXTT6=
EXTT7=
EXTT8=
EXTT9=
EXTT10=
EXTT11=
EXTT12=
EXTT13=
EXTT14=
EXTT15=
EXTT16=
EXTT17=
EXTT18=
EXTT19=
EXTT20=
EXTT21=
EXTT22=
EXTT23=
EXTT24=
EXTT25=
EXTT26=
EXTT27=
EXTT28=
EXTT29=
EXTT30=
EXTT31=
EXTT32=
EXTT33=
EXTT34=
EXTT35=
EXTT36=
EXTT37=
EXTT38=
EXTT39=
EXTT40=
EXTT41=
EXTT42=
PLAYORDER=
